# xmcd
#
# Track frame offsets: 
#        150
#        23100
#        52430
#        71276
#        97072
#        118640
#        144174
#        165685
#        188311
#        219737
#
# Disc length: 3389 seconds
#
# Revision: 0
# Processed by: cddbd v1.5.2PL0 Copyright (c) Steve Scherf et al.
# Submitted via: ExactAudioCopy v1.3
#
DISCID=8b0d3b0a
DTITLE=Jimmy Dawkins - Tell Me Baby
DYEAR=2004
DGENRE=Chicago Blues
TTITLE0=Tell Me Baby
TTITLE1=Falling Tears
TTITLE2=Kotten Field Jump
TTITLE3=Mean O' Blues
TTITLE4=Gitar King
TTITLE5=Mid Nite Boogie
TTITLE6=Tired Of Krying
TTITLE7=Bring It Back
TTITLE8=Rumping 'N' Stomping
TTITLE9=Hard Life Blues
EXTD=
EXTT0=
EXTT1=
EXTT2=
EXTT3=
EXTT4=
EXTT5=
EXTT6=
EXTT7=
EXTT8=
EXTT9=
PLAYORDER=
